<?xml version="1.0" encoding="utf-8"?>
<!-- Generator: Adobe Illustrator 23.0.1, SVG Export Plug-In . SVG Version: 6.00 Build 0)  -->
<svg version="1.1" id="图层_1" xmlns="http://www.w3.org/2000/svg" xmlns:xlink="http://www.w3.org/1999/xlink" x="0px" y="0px"
	 viewBox="0 0 32 32" style="enable-background:new 0 0 32 32;" xml:space="preserve">
<style type="text/css">
	.st0{fill:#6E6E6E;}
</style>
<path class="st0" d="M3.8,30c0,0.2,0.2,0.4,0.4,0.4h8.2l0-2.4c0-1.3,1-2.4,2.3-2.5c1.6-0.1,2.7,0.9,2.7,2.5v2.4h8
	c0.4,0,0.6-0.3,0.6-0.6V23c2.7,0,4.9-2.2,4.9-4.9s-2.2-4.9-4.9-4.9l-0.1-6.8c0-0.4-0.3-0.6-0.7-0.6h-5.4c0-2.7-2.2-4.9-4.9-4.9
	s-4.9,2.2-4.9,4.9l-5.7,0c-0.3,0-0.6,0.2-0.6,0.6L3.8,30z M28.4,18c0,1.5-1,2.5-2.5,2.5h-2.4v7.4h-3.7c0-2.7-2.2-4.9-4.9-4.9
	S10,25.2,10,27.9H6.6L6.5,8.3h5.8V5.9c0-1.5,1-2.5,2.5-2.5s2.5,1,2.5,2.5v2.4h6.1v7.4h2.4C27.4,15.6,28.4,16.6,28.4,18z"/>
</svg>
