<?xml version="1.0" encoding="utf-8"?>
<!-- Generator: Adobe Illustrator 23.0.1, SVG Export Plug-In . SVG Version: 6.00 Build 0)  -->
<svg version="1.1" id="Layer_1" xmlns="http://www.w3.org/2000/svg" xmlns:xlink="http://www.w3.org/1999/xlink" x="0px" y="0px"
	 viewBox="0 0 500 500" style="enable-background:new 0 0 500 500;" xml:space="preserve">
<style type="text/css">
	.st0{fill:#7FABDA;}
	.st1{fill:#3E4348;}
</style>
<path class="st0" d="M457.9,0H42.1C18.8,0,0,18.8,0,42.1v415.8C0,481.2,18.8,500,42.1,500h415.8c23.3,0,42.1-18.8,42.1-42.1V42.1
	C500,18.8,481.2,0,457.9,0z M452.4,437.4c-0.1,8.2-6.8,14.9-15.1,14.9H62.7c-8.3,0-15-6.7-15-15V62.7c0-8.3,6.7-15,15-15h374.7
	c8.3,0,15,6.7,15,15V437.4z"/>
<g>
	<ellipse class="st1" cx="250" cy="153.5" rx="27.4" ry="27.8"/>
	<path class="st1" d="M277.4,334.8l0.8-135l-60.7-0.3V224c5.6,0,10.1,6.7,10.1,14.9v95.9c0,8.2-4.5,14.9-10.1,14.9v24.5h70v-24.5
		C281.9,349.7,277.4,343,277.4,334.8z"/>
</g>
</svg>
