<?xml version="1.0" encoding="utf-8"?>
<!-- Generator: Adobe Illustrator 23.0.1, SVG Export Plug-In . SVG Version: 6.00 Build 0)  -->
<svg version="1.1" id="Layer_1" xmlns="http://www.w3.org/2000/svg" xmlns:xlink="http://www.w3.org/1999/xlink" x="0px" y="0px"
	 viewBox="0 0 500 500" style="enable-background:new 0 0 500 500;" xml:space="preserve">
<style type="text/css">
	.st0{fill:#67C23A;}
	.st1{fill:#3F4448;}
</style>
<g>
	<path class="st1" d="M229.2,333.3c-8.9,0-14.6-6.3-14.6-6.3l-68.7-68.7c-8.3-8.3,20.8-37.5,29.2-29.2l54.1,54.1l116.6-116.6
		c8.3-8.3,37.5,20.8,29.2,29.2L243.8,327C243.8,327,238,333.3,229.2,333.3z"/>
	<path class="st0" d="M250,500C112.5,500,0,387.5,0,250S112.5,0,250,0s250,112.5,250,250S387.5,500,250,500z M250,41.7
			C135.4,41.7,41.7,135.4,41.7,250S135.4,458.3,250,458.3S458.3,364.6,458.3,250S364.6,41.7,250,41.7z"/>
</g>
</svg>
