<svg id="Capa_1" enable-background="new 0 0 655 655" height="512" viewBox="0 0 655 655" width="512" xmlns="http://www.w3.org/2000/svg"><path d="m33.829 126.983h128.712v357.534h-128.712z" fill="#ddddde"/><path d="m126.788 126.983v321.781h-92.959v35.753h128.712v-357.534z" fill="#bbbbbe"/><path d="m69.582 162.736h92.959v226.438h-92.959z" fill="#cad8eb"/><path d="m496.24 126.983h128.712v357.534h-128.712z" fill="#ddddde"/><path d="m496.24 162.736h92.959v226.438h-92.959z" fill="#cad8eb"/><path d="m162.541 103.147h333.699v405.205h-333.699z" fill="#fff"/><path d="m198.295 138.901h262.192v274.11h-262.192z" fill="#cad8eb"/><path d="m333.689 333.93 69.592 79.08h57.205v-72.698l-67.931-56.014z" fill="#87bcc4"/><path d="m272.185 264.038-73.89 72.698v76.274h204.986z" fill="#87bcc4"/><circle cx="394.938" cy="204.449" fill="#f8e868" r="29.795"/><path d="m162.541 472.599h333.699v35.753h-333.699z" fill="#ddddde"/><path d="m531.993 126.983v321.781h92.959v35.753h-128.712v-357.534z" fill="#bbbbbe"/><path d="m126.788 162.736h35.753v226.438h-35.753z" fill="#b0c5e0"/><path d="m496.24 162.736h35.753v226.438h-35.753z" fill="#b0c5e0"/><path d="m419.444 377.257-58.414-66.379-27.341 23.052 38.129 43.327h-173.523v35.753h262.191v-35.753z" fill="#5fa6b0"/><path d="m24.89 362.955h17.877v-227.034h88.788v-17.876h-106.665z"/><path d="m42.767 380.832h-17.877v112.623h106.665v-17.876h-88.788z"/><path d="m60.644 398.113h70.911v-17.877h-53.034v-208.561h53.034v-17.877h-70.911z"/><path d="m616.014 475.579h-88.788v17.876h106.664v-244.91h-17.876z"/><path d="m527.226 118.045v17.876h88.788v94.747h17.876v-112.623z"/><path d="m598.137 153.798h-70.911v17.877h53.034v208.561h-53.034v17.877h70.911z"/><path d="m171.479 112.086h74.487v-17.877h-92.363v235.377h17.876z"/><path d="m171.479 347.462h-17.876v169.829h157.911v-17.877h-140.035z"/><path d="m263.842 112.086h223.459v68.527h17.877v-86.404h-241.336z"/><path d="m487.301 463.661h-222.267v17.877h222.267v17.876h-157.911v17.877h175.788v-318.801h-17.877z"/><path d="m193.527 463.661h17.877v17.877h-17.877z"/><path d="m229.281 463.661h17.877v17.877h-17.877z"/><path d="m469.425 129.962h-280.069v291.986h280.068v-291.986zm-262.192 274.11v-63.59l64.485-63.444 111.79 127.036h-176.275zm244.315 0h-44.226l-60.89-69.194 46.187-38.943 58.929 48.59zm0-82.716-59.058-48.696-57.873 48.794-61.967-70.415-65.418 64.363v-167.563h244.315v173.517z"/><path d="m394.938 243.182c21.357 0 38.733-17.375 38.733-38.733s-17.376-38.733-38.733-38.733-38.733 17.375-38.733 38.733 17.377 38.733 38.733 38.733zm0-59.59c11.499 0 20.856 9.357 20.856 20.856s-9.357 20.856-20.856 20.856-20.856-9.357-20.856-20.856 9.357-20.856 20.856-20.856z"/><g fill="#fff"><path d="m96.397 191.339h17.877v17.877h-17.877z"/><path d="m544.507 191.339h17.877v17.877h-17.877z"/><path d="m96.397 342.695h17.877v17.877h-17.877z"/><path d="m544.507 342.695h17.877v17.877h-17.877z"/><path d="m313.897 191.935h-17.877v-17.877h17.877zm-35.753 0h-47.671v-17.877h47.671z"/><path d="m313.897 191.935h-17.877v-17.877h17.877zm-35.753 0h-47.671v-17.877h47.671z"/><path d="m290.062 209.812h47.671v17.877h-47.671z"/><path d="m290.062 209.812h47.671v17.877h-47.671z"/></g></svg>