<?xml version="1.0" encoding="utf-8"?>
<!-- Generator: Adobe Illustrator 23.0.1, SVG Export Plug-In . SVG Version: 6.00 Build 0)  -->
<svg version="1.1" id="图层_1" xmlns="http://www.w3.org/2000/svg" xmlns:xlink="http://www.w3.org/1999/xlink" x="0px" y="0px"
	 viewBox="0 0 500 500" style="enable-background:new 0 0 500 500;" xml:space="preserve">
<style type="text/css">
	.st0{fill:#E8A950;}
	.st1{fill:#3F4448;}
</style>
<path class="st0" d="M495,396.5L280.9,49.6c-14-23.4-46.8-23.4-60.9,0L5.9,396.4c-15.6,23.4,1.6,54.7,29.7,54.7h428.1
	C491.9,451.1,509.1,419.9,495,396.5z M432.9,404.3H66.5c-6,0-9.6-6.6-6.5-11.7L243.2,97.5c3-4.8,10-4.8,13,0l183.2,295.1
	C442.6,397.7,438.9,404.3,432.9,404.3z"/>
<g>
	<path class="st1" d="M250,330c-9.4,0-16.4,7-16.4,17.2c0,10.3,7,16.4,16.4,16.4c9.4,0,16.4-6.2,16.4-16.4S260.1,329.9,250,330z"/>
	<path class="st1" d="M239.6,182.9c-7,0-12.6,6-12.2,13l7.4,118.4c1.2,9.4,29.3,11,30.4,0l7.4-118.4c0.4-7-5.1-13-12.2-13H239.6z"/>
</g>
</svg>
