<?xml version="1.0" encoding="utf-8"?>
<!-- Generator: Adobe Illustrator 23.0.1, SVG Export Plug-In . SVG Version: 6.00 Build 0)  -->
<svg version="1.1" id="图层_1" xmlns="http://www.w3.org/2000/svg" xmlns:xlink="http://www.w3.org/1999/xlink" x="0px" y="0px"
	 viewBox="0 0 500 500" style="enable-background:new 0 0 500 500;" xml:space="preserve">
<style type="text/css">
	.st0{fill-rule:evenodd;clip-rule:evenodd;fill:#E86A69;}
	.st1{fill-rule:evenodd;clip-rule:evenodd;fill:#3E4348;}
</style>
<path class="st0" d="M490,136.4L363.7,10.1C357.2,3.6,348.5,0,339.4,0H160.7c-9.1,0-17.9,3.6-24.3,10.1L10.1,136.4
	C3.6,142.9,0,151.6,0,160.7v178.6c0,9.1,3.6,17.9,10.1,24.3l126.3,126.3c6.5,6.5,15.2,10.1,24.3,10.1h178.6
	c9.1,0,17.9-3.7,24.3-10.1l126.3-126.2c6.5-6.5,10.1-15.2,10.1-24.3V160.7C500,151.6,496.4,142.8,490,136.4z M454.6,325.4
	c0,6-2.4,11.8-6.6,16L341.4,448c-4.3,4.2-10,6.6-16,6.6H174.7c-6,0-11.8-2.4-16-6.6L52.1,341.4c-4.2-4.3-6.6-10-6.6-16V174.7
	c0-6,2.4-11.8,6.6-16L158.6,52.1c4.3-4.2,10-6.6,16-6.6h150.8c6,0,11.7,2.3,15.9,6.6L448,158.6c4.2,4.3,6.6,10,6.6,16V325.4z"/>
<path class="st1" d="M324.1,149.1L250,222.4l-74.1-77.1c-8-8-37.3,20.9-29.2,28.8l74.1,77.1l-75.5,74.7
	c-8.1,7.9,21.1,36.9,29.2,28.8L250,280l75.5,73.3c8,8,37.3-20.9,29.2-28.8l-75.5-73.3l74.1-73.3C361.4,170,332.1,141,324.1,149.1z"
	/>
</svg>
